<?xml version="1.0" encoding="UTF-8"?><svg id="Layer_1" xmlns="http://www.w3.org/2000/svg" viewBox="0 0 3456 864"><defs><style>.cls-1{fill:#d85a7d;}</style></defs><path class="cls-1" d="M201.54,569.1l13.63-93.42h-53.02l-13.13,93.42h-41.41l12.62-93.42h-33.33v-40.4h38.88l11.62-78.27h-38.38v-40.4h43.93l13.63-94.93h41.91l-13.63,94.93h52.51l13.63-94.93h41.91l-14.14,94.93h36.86v40.4h-41.91l-11.62,78.27h42.42v40.4h-47.97l-13.13,93.42h-41.91Zm30.3-212.09h-52.51l-11.11,78.27h52.52l11.11-78.27Z"/><path class="cls-1" d="M522.18,569.1l-37.36-126.74h-49.49v126.74h-57.57V221.68h112.1c24.24,0,42.49,4.22,54.79,12.63,12.28,8.42,20.53,20.37,24.74,35.85,4.21,15.49,6.31,36.03,6.31,61.61s-2.45,45.62-7.32,62.11c-4.89,16.5-14.73,28.62-29.54,36.36l43.93,138.86h-60.6Zm-18.18-183.55c5.72-3.2,9.51-8.75,11.36-16.66,1.85-7.91,2.78-20.28,2.78-37.11s-.93-29.12-2.78-36.86c-1.86-7.74-5.64-13.21-11.36-16.41-5.73-3.2-14.98-4.8-27.77-4.8h-40.9v116.65h40.9c12.79,0,22.04-1.6,27.77-4.8Z"/><path class="cls-1" d="M789.3,459.02h-119.68c0,21.89,1.01,37.11,3.03,45.7,2.02,8.59,6.39,14.31,13.13,17.17,6.73,2.86,18.51,4.29,35.35,4.29s36.86-1.34,62.11-4.04v42.92c-8.42,2.36-19.62,4.29-33.58,5.81-13.98,1.51-27.52,2.27-40.65,2.27-28.28,0-49.07-4.29-62.36-12.88-13.3-8.59-21.89-21.71-25.75-39.39-3.88-17.67-5.81-44.35-5.81-80.04s1.85-61.94,5.55-79.78c3.7-17.84,11.94-31.22,24.74-40.15,12.79-8.91,32.82-13.38,60.09-13.38s46.21,4.29,57.82,12.88c11.62,8.59,18.85,21.38,21.71,38.38,2.86,17,4.29,44.18,4.29,81.55v18.68Zm-107.56-99.99c-4.72,3.03-7.83,8.76-9.34,17.17-1.51,8.42-2.45,22.56-2.78,42.42h67.66v-.5c0-19.52-.84-33.66-2.52-42.42-1.69-8.75-4.72-14.47-9.09-17.17-4.38-2.69-11.45-4.04-21.21-4.04-10.44,0-18.01,1.52-22.72,4.54Z"/><path class="cls-1" d="M838.53,554.96c-9.26-12.12-13.89-31.64-13.89-58.58,0-19.86,2.02-35.51,6.06-46.96,4.04-11.44,10.68-19.69,19.94-24.74,9.26-5.05,22.13-7.57,38.63-7.57,12.79,0,30.63,.68,53.52,2.02v-12.63c0-16.49-1.26-28.28-3.79-35.35-2.52-7.07-6.9-11.61-13.13-13.63-6.23-2.02-16.58-3.03-31.05-3.03s-33.83,1.35-58.07,4.04v-42.92c23.56-5.38,48.14-8.08,73.73-8.08,24.24,0,42.49,3.2,54.79,9.59,12.28,6.4,20.7,16.75,25.25,31.06,4.54,14.31,6.81,34.76,6.81,61.35v159.57h-50.49l-2.02-31.81h-3.03c-8.08,23.91-27.27,35.85-57.57,35.85-21.21,0-36.44-6.06-45.7-18.18Zm85.59-33.33c4.37-1.34,8.25-4.04,11.62-8.08,4.71-6.39,7.07-20.53,7.07-42.42v-13.64h-37.87c-7.41,0-12.88,.85-16.41,2.53-3.53,1.69-6.06,4.88-7.57,9.59-1.52,4.72-2.27,11.95-2.27,21.71,0,13.13,1.85,21.8,5.55,26.01,3.7,4.21,11.62,6.31,23.73,6.31,6.39,0,11.78-.67,16.16-2.02Z"/><path class="cls-1" d="M1049.85,569.1V193.91h54.54v375.19h-54.54Z"/><path class="cls-1" d="M1206.89,569.1V275.21h-69.69v-53.53h196.43v53.53h-69.18v293.89h-57.57Z"/><path class="cls-1" d="M1518.95,459.02h-119.68c0,21.89,1.01,37.11,3.03,45.7,2.02,8.59,6.39,14.31,13.13,17.17,6.73,2.86,18.51,4.29,35.35,4.29s36.86-1.34,62.11-4.04v42.92c-8.42,2.36-19.62,4.29-33.58,5.81-13.98,1.51-27.52,2.27-40.65,2.27-28.28,0-49.07-4.29-62.36-12.88-13.3-8.59-21.89-21.71-25.75-39.39-3.88-17.67-5.81-44.35-5.81-80.04s1.85-61.94,5.55-79.78c3.7-17.84,11.94-31.22,24.74-40.15,12.79-8.91,32.82-13.38,60.09-13.38s46.21,4.29,57.82,12.88c11.62,8.59,18.85,21.38,21.71,38.38,2.86,17,4.29,44.18,4.29,81.55v18.68Zm-107.56-99.99c-4.72,3.03-7.83,8.76-9.34,17.17-1.51,8.42-2.45,22.56-2.78,42.42h67.66v-.5c0-19.52-.84-33.66-2.52-42.42-1.69-8.75-4.72-14.47-9.09-17.17-4.38-2.69-11.45-4.04-21.21-4.04-10.44,0-18.01,1.52-22.72,4.54Z"/><path class="cls-1" d="M1642.66,573.14c-24.58,0-42.75-4.54-54.54-13.64-11.79-9.09-19.53-22.72-23.23-40.9-3.71-18.18-5.55-44.26-5.55-78.27s2.1-60.26,6.31-78.77c4.21-18.51,12.2-32.15,23.99-40.9,11.78-8.75,29.29-13.13,52.52-13.13,10.1,0,20.2,.68,30.3,2.02,10.1,1.35,18.01,3.2,23.73,5.55v43.43c-14.14-2.69-27.27-4.04-39.39-4.04-13.13,0-22.56,1.94-28.28,5.81-5.73,3.87-9.59,11.53-11.61,22.97-2.02,11.45-3.03,30.47-3.03,57.06s1.01,45.7,3.03,57.31c2.02,11.61,5.89,19.28,11.61,22.97,5.72,3.71,15.15,5.55,28.28,5.55s26.76-1.34,40.9-4.04v43.43c-16.84,5.05-35.18,7.57-55.04,7.57Z"/><path class="cls-1" d="M1858.78,427.2c0-22.55-.68-38.38-2.02-47.47-1.35-9.09-4.04-14.9-8.08-17.42-4.04-2.53-11.11-3.79-21.21-3.79-10.78,0-18.52,2.27-23.23,6.82-4.72,4.54-7.66,11.7-8.84,21.46-1.18,9.77-1.77,25.76-1.77,47.97v134.32h-54.54V193.91h54.54v147.96h2.53c4.37-11.78,11.27-20.45,20.7-26.01,9.42-5.55,21.54-8.33,36.36-8.33,16.49,0,29.12,3.28,37.87,9.85,8.75,6.56,14.65,16.33,17.67,29.29,3.03,12.96,4.54,30.72,4.54,53.27v169.16h-54.54v-141.89Z"/><path class="cls-1" d="M2085.51,427.2c0-22.55-.68-38.38-2.02-47.47-1.35-9.09-4.04-14.9-8.08-17.42-4.04-2.53-11.11-3.79-21.21-3.79-10.78,0-18.52,2.27-23.23,6.82-4.72,4.54-7.66,11.7-8.84,21.46-1.18,9.77-1.77,25.76-1.77,47.97v134.32h-54.54V311.57h49.99l2.02,32.32h3.03c4.37-12.79,11.44-22.05,21.21-27.77,9.76-5.72,22.38-8.59,37.87-8.59,16.83,0,29.54,3.28,38.12,9.85,8.59,6.56,14.39,16.5,17.42,29.79,3.03,13.3,4.54,31.56,4.54,54.79v167.14h-54.54v-141.89Z"/><path class="cls-1" d="M2214.77,562.03c-12.46-7.4-20.45-19.86-23.99-37.37-3.53-17.5-5.3-45.61-5.3-84.33s1.77-67.33,5.3-84.84c3.53-17.5,11.53-29.87,23.99-37.11,12.45-7.24,32.65-10.86,60.6-10.86s48.14,3.62,60.6,10.86c12.45,7.24,20.45,19.62,23.99,37.11,3.53,17.51,5.3,45.79,5.3,84.84s-1.77,66.83-5.3,84.33c-3.53,17.51-11.54,29.96-23.99,37.37-12.46,7.4-32.66,11.11-60.6,11.11s-48.14-3.71-60.6-11.11Zm85.59-41.16c4.54-3.53,7.4-10.68,8.59-21.46,1.17-10.77,1.77-30.46,1.77-59.08s-.59-48.73-1.77-59.33c-1.18-10.61-4.04-17.67-8.59-21.21-4.54-3.53-12.88-5.3-25-5.3s-20.45,1.77-25,5.3c-4.54,3.54-7.41,10.61-8.59,21.21-1.18,10.6-1.77,30.38-1.77,59.33s.59,48.31,1.77,59.08c1.17,10.78,4.04,17.93,8.59,21.46,4.54,3.53,12.88,5.3,25,5.3s20.45-1.77,25-5.3Z"/><path class="cls-1" d="M2412.21,569.1V193.91h54.54v375.19h-54.54Z"/><path class="cls-1" d="M2542.48,562.03c-12.46-7.4-20.45-19.86-23.99-37.37-3.53-17.5-5.3-45.61-5.3-84.33s1.77-67.33,5.3-84.84c3.53-17.5,11.53-29.87,23.99-37.11,12.45-7.24,32.65-10.86,60.6-10.86s48.14,3.62,60.6,10.86c12.45,7.24,20.45,19.62,23.99,37.11,3.53,17.51,5.3,45.79,5.3,84.84s-1.77,66.83-5.3,84.33c-3.53,17.51-11.54,29.96-23.99,37.37-12.46,7.4-32.66,11.11-60.6,11.11s-48.14-3.71-60.6-11.11Zm85.59-41.16c4.54-3.53,7.4-10.68,8.59-21.46,1.17-10.77,1.77-30.46,1.77-59.08s-.59-48.73-1.77-59.33c-1.18-10.61-4.04-17.67-8.59-21.21-4.54-3.53-12.88-5.3-25-5.3s-20.45,1.77-25,5.3c-4.54,3.54-7.41,10.61-8.59,21.21-1.18,10.6-1.77,30.38-1.77,59.33s.59,48.31,1.77,59.08c1.17,10.78,4.04,17.93,8.59,21.46,4.54,3.53,12.88,5.3,25,5.3s20.45-1.77,25-5.3Z"/><path class="cls-1" d="M2779.06,668.32c-12.96-1.18-23.48-2.61-31.56-4.29v-42.92l56.56,1.01c16.83,0,28.7-1.6,35.6-4.8,6.89-3.2,11.36-9.34,13.38-18.43,2.02-9.09,3.03-24.92,3.03-47.47v-13.63h-3.03c-4.04,11.45-10.52,19.61-19.44,24.49-8.92,4.89-20.28,7.32-34.08,7.32-17.85,0-31.48-3.87-40.9-11.61-9.43-7.74-16.08-20.87-19.94-39.39-3.88-18.51-5.81-44.94-5.81-79.28s2.02-61.94,6.06-80.79c4.04-18.85,10.86-32.07,20.45-39.64,9.6-7.57,23.14-11.36,40.65-11.36,28.95,0,47.3,11.95,55.04,35.85h3.03l2.02-31.81h50.49v224.71c0,35.35-1.85,61.94-5.55,79.78-3.71,17.84-12.29,31.31-25.75,40.4-13.47,9.09-34.51,13.63-63.12,13.63-11.79,0-24.16-.59-37.11-1.77Zm63.88-152.75c4.71-3.36,7.91-9.26,9.6-17.67,2.35-9.76,3.53-29.29,3.53-58.58,0-25.58-.84-43.25-2.52-53.02-1.69-10.77-4.88-18.09-9.6-21.96-4.72-3.87-11.95-5.81-21.71-5.81-11.45,0-19.36,1.51-23.73,4.54-4.38,3.03-7.32,9.77-8.84,20.2-1.52,10.44-2.27,29.12-2.27,56.05s.76,44.78,2.27,55.55c1.51,10.78,4.54,17.76,9.09,20.95,4.54,3.21,12.37,4.8,23.48,4.8,9.09,0,15.99-1.68,20.7-5.05Z"/><path class="cls-1" d="M2963.62,249.46v-55.55h55.55v55.55h-55.55Zm.5,319.64V311.57h54.54v257.53h-54.54Z"/><path class="cls-1" d="M3102.73,571.12c-13.63-1.35-25.5-3.03-35.6-5.05v-43.93c24.24,2.7,44.6,4.04,61.1,4.04,10.43,0,18.18-.92,23.23-2.78,5.05-1.85,8.41-4.8,10.1-8.84,1.68-4.04,2.52-10.1,2.52-18.18,0-9.42-.5-16.07-1.51-19.94-1.01-3.87-2.87-6.56-5.55-8.08-2.7-1.52-7.41-2.78-14.14-3.79l-44.94-6.56c-13.81-2.02-23.4-8.41-28.78-19.19-5.39-10.77-8.08-28.78-8.08-54.03,0-28.95,6.9-49.06,20.7-60.34,13.8-11.28,34.16-16.92,61.1-16.92,11.11,0,22.64,.76,34.59,2.27,11.94,1.52,21.63,3.46,29.03,5.81v43.43c-18.86-3.03-37.7-4.54-56.56-4.54-13.13,0-22.14,1.94-27.02,5.81-4.88,3.87-7.32,11.7-7.32,23.48,0,8.42,.42,14.48,1.26,18.18,.84,3.71,2.52,6.31,5.05,7.83,2.52,1.51,6.81,2.61,12.88,3.28l38.37,5.05c9.76,1.35,17.84,4.04,24.24,8.08,6.39,4.04,11.44,11.28,15.15,21.71,3.7,10.44,5.55,25.25,5.55,44.44,0,30.64-6.31,51.76-18.94,63.37-12.62,11.62-32.4,17.42-59.33,17.42-11.11,0-23.48-.68-37.11-2.02Z"/><path class="cls-1" d="M3273.15,569.1v-210.57h-33.83v-46.96h33.83v-74.73h54.54v74.73h41.41v46.96h-41.41v210.57h-54.54Z"/></svg>